<?xml version="1.0" standalone="no"?>
<!DOCTYPE svg PUBLIC "-//W3C//DTD SVG 20010904//EN"
 "http://www.w3.org/TR/2001/REC-SVG-20010904/DTD/svg10.dtd">
<svg version="1.0" xmlns="http://www.w3.org/2000/svg"
 width="300.000000pt" height="300.000000pt" viewBox="0 0 300.000000 300.000000"
 preserveAspectRatio="xMidYMid meet">
<metadata>
Created by potrace 1.11, written by Peter Selinger 2001-2013
</metadata>
<g transform="translate(0.000000,300.000000) scale(0.100000,-0.100000)"
fill="#000000" stroke="none">
<path d="M1105 2654 c-279 -40 -459 -125 -621 -297 -163 -171 -243 -387 -244
-654 -1 -700 597 -1386 1357 -1555 82 -19 128 -22 283 -22 168 1 194 3 285 27
287 77 497 247 614 499 70 148 85 227 85 428 0 145 -4 191 -22 266 -53 222
-167 459 -298 621 -24 29 -41 65 -54 120 -30 118 -74 198 -149 274 -114 114
-248 167 -439 173 -82 2 -113 9 -201 41 -149 54 -263 75 -426 79 -77 3 -153 3
-170 0z m243 -14 c124 -13 228 -35 340 -72 91 -30 116 -48 66 -48 -55 0 -275
-68 -299 -93 -7 -7 -3 -8 10 -3 16 5 15 2 -5 -14 -14 -11 -30 -20 -37 -20 -7
0 -16 -6 -20 -14 -4 -7 -29 -23 -55 -34 -27 -12 -48 -24 -48 -27 0 -3 9 -1 19
5 25 13 41 13 41 0 0 -5 20 -50 44 -99 24 -49 47 -103 51 -120 4 -17 11 -31
16 -31 5 0 9 -6 9 -12 0 -7 7 -26 16 -43 20 -38 64 -146 64 -157 0 -4 -6 -8
-12 -8 -7 0 -24 25 -37 55 -14 30 -26 53 -29 51 -2 -2 8 -28 22 -58 21 -46 22
-54 9 -63 -44 -30 -42 -32 8 -10 63 28 219 47 219 27 0 -22 -122 -172 -183
-225 -174 -152 -362 -230 -519 -213 -141 14 -219 103 -220 250 -1 80 19 160
63 250 16 34 22 51 13 39 -9 -13 -21 -23 -26 -23 -6 0 -4 8 3 17 10 12 10 15
1 9 -7 -4 -34 -40 -61 -79 -156 -232 -234 -463 -234 -692 0 -196 55 -340 176
-459 120 -119 252 -169 447 -169 146 1 278 32 451 106 39 17 53 13 64 -22 6
-18 4 -22 -6 -15 -11 6 -10 3 1 -12 22 -29 24 -30 17 -11 -12 31 10 18 27 -18
9 -19 21 -37 27 -40 5 -4 7 -16 4 -28 -4 -15 -3 -18 3 -9 7 10 13 7 26 -13 9
-14 14 -31 10 -37 -4 -6 -3 -8 4 -5 5 4 22 -14 38 -40 15 -27 30 -50 34 -53 3
-3 10 -13 13 -24 6 -14 4 -17 -8 -12 -9 3 -13 2 -10 -3 3 -5 -4 -13 -16 -16
-11 -4 -18 -9 -16 -12 7 -7 127 50 192 92 71 45 172 139 230 215 46 60 125
191 125 206 0 5 -6 0 -12 -10 -10 -17 -13 -16 -34 19 -72 121 -160 255 -166
255 -4 0 19 -39 51 -87 121 -185 133 -210 119 -237 -13 -24 -15 -22 -83 86
-38 61 -74 116 -80 122 -5 6 -19 28 -29 48 -11 22 -23 35 -30 31 -6 -4 10 17
35 47 98 115 184 258 242 400 57 137 78 231 85 375 l7 130 44 -59 c199 -267
315 -620 297 -903 -28 -445 -306 -771 -735 -863 -390 -84 -852 42 -1222 332
-113 89 -280 262 -363 378 -83 116 -196 343 -231 465 -118 407 -42 777 210
1030 210 210 509 309 833 275z m457 -338 c13 -21 27 -53 30 -72 4 -29 4 -31
-4 -9 -14 43 -32 73 -65 108 -25 27 -27 31 -8 22 12 -7 33 -29 47 -49z m-940
-392 c-3 -5 -11 -10 -16 -10 -6 0 -7 5 -4 10 3 6 11 10 16 10 6 0 7 -4 4 -10z
m1276 -799 c-147 -176 -380 -344 -583 -421 -77 -29 -80 -25 -10 18 34 20 71
45 82 54 11 10 20 15 20 13 0 -3 6 -1 13 5 42 35 107 80 107 73 0 -4 5 0 11
10 5 9 15 17 22 17 7 0 27 14 46 30 18 17 40 30 47 30 8 0 14 5 14 10 0 6 7
10 15 10 9 0 18 7 21 15 4 8 13 15 20 15 8 0 17 7 20 15 4 8 12 15 20 15 8 0
14 4 14 9 0 5 13 14 28 20 16 7 51 34 78 62 26 27 50 49 52 49 2 0 -15 -22
-37 -49z m-664 -447 c-3 -3 -12 -4 -19 -1 -8 3 -5 6 6 6 11 1 17 -2 13 -5z"/>
<path d="M1395 2400 c-3 -6 1 -7 9 -4 18 7 21 14 7 14 -6 0 -13 -4 -16 -10z"/>
<path d="M896 2331 c-3 -4 5 -6 18 -4 28 6 40 -25 25 -64 -13 -34 -60 -29 -70
7 -5 19 -7 14 -8 -21 -2 -82 54 -105 108 -44 36 42 41 85 11 115 -20 20 -74
27 -84 11z"/>
<path d="M1337 2273 c19 -48 47 -109 89 -201 19 -40 34 -77 34 -82 0 -5 5 -12
10 -15 11 -7 -14 61 -48 130 -23 48 -54 116 -75 168 -9 20 -18 37 -21 37 -3 0
2 -17 11 -37z"/>
<path d="M1179 2263 c-13 -16 -12 -17 4 -4 9 7 17 15 17 17 0 8 -8 3 -21 -13z"/>
<path d="M1134 2228 l-19 -23 23 19 c12 11 22 21 22 23 0 8 -8 2 -26 -19z"/>
<path d="M1010 2113 l-85 -88 88 85 c48 46 87 86 87 87 0 8 -11 -3 -90 -84z"/>
<path d="M1170 2100 c-13 -8 -13 -10 2 -10 27 0 58 -48 58 -90 0 -49 -38 -93
-77 -88 -33 4 -76 61 -68 92 3 12 -6 -1 -20 -29 -32 -64 -33 -127 -2 -185 24
-46 74 -80 118 -80 36 0 89 38 113 80 l20 35 -25 -22 c-39 -35 -76 -45 -118
-31 l-36 12 39 8 c106 23 182 155 141 242 -28 59 -103 93 -145 66z"/>
<path d="M894 1988 c-12 -14 -13 -18 -3 -10 9 6 18 10 21 7 2 -3 5 2 5 10 0
19 0 19 -23 -7z"/>
<path d="M2426 865 c-9 -26 -7 -32 5 -12 6 10 9 21 6 23 -2 3 -7 -2 -11 -11z"/>
<path d="M1795 480 c3 -5 8 -10 11 -10 2 0 4 5 4 10 0 6 -5 10 -11 10 -5 0 -7
-4 -4 -10z"/>
<path d="M1820 436 c0 -2 7 -7 16 -10 8 -3 12 -2 9 4 -6 10 -25 14 -25 6z"/>
<path d="M1856 385 c9 -14 18 -25 20 -25 2 0 -2 11 -8 25 -6 14 -15 25 -20 25
-5 0 -1 -11 8 -25z"/>
</g>
</svg>
